<?xml version="1.0" standalone="no"?>
<!DOCTYPE svg PUBLIC "-//W3C//DTD SVG 20010904//EN"
 "http://www.w3.org/TR/2001/REC-SVG-20010904/DTD/svg10.dtd">
<svg version="1.0" xmlns="http://www.w3.org/2000/svg"
 width="500.000000pt" height="500.000000pt" viewBox="0 0 500.000000 500.000000"
 preserveAspectRatio="xMidYMid meet">

<g transform="translate(0.000000,500.000000) scale(0.100000,-0.100000)"
fill="#000000" stroke="none">
<path d="M1845 4975 c-36 -35 -32 -68 14 -118 l39 -42 -39 -42 c-43 -47 -49
-78 -21 -114 30 -36 75 -30 122 16 l40 39 32 -31 c43 -40 72 -54 95 -46 63 22
71 81 18 133 -19 19 -35 39 -35 45 0 6 16 26 35 45 49 48 49 102 -2 129 -35
18 -51 13 -98 -30 l-45 -42 -45 42 c-51 47 -76 51 -110 16z"/>
<path d="M3055 4876 c-97 -44 -154 -127 -162 -231 -17 -209 209 -360 398 -265
101 51 153 134 153 245 -1 83 -17 126 -71 185 -79 89 -211 116 -318 66z m206
-155 c35 -34 39 -44 39 -87 0 -139 -154 -196 -239 -88 -32 41 -36 87 -12 136
26 55 63 77 125 78 43 0 53 -4 87 -39z"/>
<path d="M1250 4546 c-111 -23 -201 -100 -241 -205 -17 -45 -20 -72 -17 -136
6 -99 35 -163 106 -226 166 -149 425 -94 521 110 38 81 37 193 -2 273 -68 140
-220 216 -367 184z m149 -150 c42 -22 89 -81 102 -128 38 -141 -109 -276 -245
-224 -155 59 -171 270 -26 347 42 23 129 25 169 5z"/>
<path d="M2462 4298 c-31 -15 -37 -44 -37 -186 0 -118 1 -125 24 -143 32 -26
67 -24 96 6 24 23 25 29 25 155 0 126 -1 132 -25 155 -26 27 -47 30 -83 13z"/>
<path d="M3502 4260 c-35 -32 -29 -73 18 -124 l39 -43 -39 -38 c-97 -94 0
-189 100 -99 l40 36 40 -36 c46 -42 89 -47 120 -16 31 31 25 65 -19 113 l-39
42 39 42 c48 52 52 91 13 122 -39 30 -66 26 -115 -18 l-44 -39 -42 39 c-48 44
-79 49 -111 19z"/>
<path d="M2040 4183 c-30 -11 -50 -37 -50 -66 0 -33 121 -241 146 -251 53 -20
104 9 104 60 0 35 -128 244 -157 255 -13 5 -25 9 -26 8 -1 0 -9 -3 -17 -6z"/>
<path d="M2877 4148 c-48 -66 -127 -206 -127 -227 0 -27 42 -71 67 -71 33 0
60 28 121 128 74 121 80 139 52 175 -32 40 -81 38 -113 -5z"/>
<path d="M2376 3639 c-87 -12 -232 -60 -314 -105 l-63 -34 -567 0 c-528 0
-570 -2 -607 -19 -23 -10 -52 -32 -66 -48 -18 -22 -80 -196 -219 -614 -106
-321 -252 -762 -324 -979 l-131 -395 0 -303 0 -304 24 -19 c30 -24 52 -24 85
2 l26 20 0 225 c0 211 1 225 20 244 19 19 33 20 489 20 258 0 477 -3 486 -6 8
-4 65 -105 126 -225 98 -196 115 -222 151 -247 l42 -27 966 0 966 0 42 27 c36
25 53 51 151 247 61 120 118 221 126 225 9 3 228 6 486 6 456 0 470 -1 489
-20 20 -20 20 -33 20 -574 l0 -555 -26 -20 -27 -21 -2227 0 -2227 0 -27 21
-26 20 0 180 c0 166 -1 180 -20 199 -29 29 -74 26 -99 -6 -19 -25 -21 -40 -21
-198 0 -94 4 -186 10 -205 16 -56 52 -100 104 -126 l50 -25 2256 0 2256 0 52
26 c39 19 59 38 80 72 l27 47 0 650 0 650 -171 518 c-94 284 -179 526 -189
537 -40 44 -119 12 -117 -47 0 -16 71 -240 156 -499 86 -260 156 -475 156
-478 0 -4 -71 -5 -157 -4 l-157 3 -188 570 -187 570 -1 373 c0 369 0 372 21
372 48 0 55 -14 154 -310 53 -160 103 -297 112 -305 23 -23 79 -19 97 7 9 12
16 31 16 41 0 11 -43 151 -96 313 -102 316 -115 342 -189 375 -37 17 -79 19
-607 19 l-566 0 -74 39 c-92 49 -212 87 -319 101 -94 11 -135 11 -233 -1z
m228 -139 c95 -14 208 -54 291 -102 84 -49 226 -189 274 -271 43 -73 87 -201
102 -297 30 -196 -40 -439 -174 -601 -94 -113 -248 -213 -392 -254 -73 -21
-95 -39 -95 -78 0 -68 49 -82 166 -46 312 96 557 365 622 681 l17 78 241 0
c217 0 242 -2 256 -17 9 -10 70 -187 137 -393 66 -206 147 -455 180 -552 l59
-177 -273 -3 -273 -3 -44 -30 c-39 -27 -53 -50 -148 -243 -58 -117 -112 -217
-120 -222 -20 -13 -1840 -13 -1860 0 -8 5 -62 105 -120 222 -95 193 -109 216
-148 243 l-44 30 -273 3 -273 3 59 177 c33 97 114 346 180 552 67 206 128 383
137 393 14 15 39 17 259 17 l243 0 0 -24 c0 -40 48 -193 81 -259 67 -133 164
-251 272 -333 77 -58 220 -128 310 -151 61 -16 70 -16 95 -3 20 12 28 25 30
52 4 46 -14 63 -86 84 -83 24 -188 77 -266 136 -214 160 -335 455 -297 718 63
428 458 730 875 670z m-1664 -512 l-1 -373 -187 -570 -188 -570 -157 -3 c-86
-1 -157 0 -157 4 0 6 294 906 487 1486 80 242 131 381 141 388 9 5 27 10 40
10 l22 0 0 -372z m880 368 c0 -3 -25 -38 -55 -78 -101 -134 -167 -301 -182
-460 l-6 -68 -248 0 -249 0 0 305 0 305 370 0 c204 0 370 -2 370 -4z m2100
-301 l0 -305 -250 0 -250 0 0 34 c0 45 -24 168 -45 231 -28 85 -82 187 -140
263 -30 40 -55 75 -55 78 0 2 167 4 370 4 l370 0 0 -305z"/>
<path d="M2049 2863 c-26 -30 -30 -53 -14 -83 29 -56 116 -45 131 16 15 59
-78 112 -117 67z"/>
<path d="M2851 2854 c-27 -35 -26 -59 4 -89 45 -46 118 -19 118 43 0 69 -80
99 -122 46z"/>
<path d="M2399 2597 c-62 -18 -138 -64 -151 -92 -15 -32 2 -77 36 -93 24 -12
33 -11 88 18 86 45 154 45 238 -1 57 -32 62 -33 88 -19 15 9 31 28 37 43 15
43 -10 77 -85 115 -76 39 -176 50 -251 29z"/>
<path d="M480 690 c-11 -11 -20 -33 -20 -50 0 -17 9 -39 20 -50 18 -18 33 -20
179 -20 139 0 162 2 182 18 31 26 31 78 0 104 -20 16 -43 18 -182 18 -146 0
-161 -2 -179 -20z"/>
<path d="M477 462 c-23 -25 -21 -78 3 -102 18 -18 33 -20 179 -20 139 0 162 2
182 18 28 23 30 73 4 102 -17 19 -30 20 -185 20 -149 0 -169 -2 -183 -18z"/>
</g>
</svg>
